<svg xmlns="http://www.w3.org/2000/svg" width="24" height="24" viewBox="0 0 24 24"><path fill="#f2f3f3" d="M10.625 0h2.796l.013.008c.99.331 1.876.392 2.888.792 3.493 1.38 6.052 4.116 7.167 7.707.142.458.364 1.799.511 2.061v2.922c-.18.395-.28 1.168-.405 1.637-.397 1.498-1.451 3.683-2.573 4.772-1.278 1.604-3.656 3.077-5.626 3.622-.359.1-1.63.349-1.845.479h-3.103c-.23-.125-1.603-.409-2.012-.533-2.013-.615-4.158-1.988-5.502-3.607-1.053-1.029-2.16-3.28-2.52-4.712-.1-.4-.25-1.455-.414-1.724v-2.842c.11-.154.487-1.97.625-2.392A11.93 11.93 0 0 1 7.945.706C8.54.489 10.39.121 10.61.008z"/><path fill="#9da1a3" d="M2.934 19.86c.114-.55.255-.81.752-1.111 1.152-.693 2.61-.77 3.891-1.068.476-.111 1.313-.133 1.385-.703.312-2.473-3.03-3.902-2.708-6.36.04-.302.275-.733.267-1.042-.066-2.47.1-4.034 2.371-5.553 1.196-.799 2.802-1.187 4.278-.87.857.206 2 .704 2.895.935.217.112.482.374.6.583.808 1.43.578 3.225.787 4.804.185 1.4.678 1.797-.263 3.236-.753 1.15-2.65 2.924-2.061 4.457.26.483 3.815.903 4.5 1.221.553.257.775.423 1.291.774l.103.736c-1.278 1.604-3.656 3.077-5.626 3.622-.359.1-1.63.349-1.845.479h-3.103c-.23-.125-1.603-.409-2.012-.533-2.013-.615-4.158-1.988-5.502-3.607"/></svg>